<svg width="25" height="24" viewBox="0 0 25 24" fill="none" xmlns="http://www.w3.org/2000/svg">
<path fill-rule="evenodd" clip-rule="evenodd" d="M12.5 22.5C18.299 22.5 23 17.799 23 12C23 6.20101 18.299 1.5 12.5 1.5C6.70101 1.5 2 6.20101 2 12C2 17.799 6.70101 22.5 12.5 22.5Z" fill="#004852"/>
<path fill-rule="evenodd" clip-rule="evenodd" d="M11 16.125L7.25 12.375L8.4425 11.25L11 13.7625L16.5575 8.25L17.75 9.435L11 16.125Z" fill="white"/>
<mask id="mask0_9514_59672" style="mask-type:alpha" maskUnits="userSpaceOnUse" x="7" y="8" width="11" height="9">
<path fill-rule="evenodd" clip-rule="evenodd" d="M11 16.125L7.25 12.375L8.4425 11.25L11 13.7625L16.5575 8.25L17.75 9.435L11 16.125Z" fill="white"/>
</mask>
<g mask="url(#mask0_9514_59672)">
</g>
</svg>
