<svg width="170" height="111" viewBox="0 0 170 111" fill="none" xmlns="http://www.w3.org/2000/svg">
<g clip-path="url(#clip0_9514_59718)">
<path d="M65.2979 42.8186C64.7328 40.7357 63.4565 39.0276 61.7885 37.8724L63.082 35.6863L61.4862 34.8006L60.1928 36.9868C58.3204 36.1771 56.1536 35.9742 54.0124 36.5551C51.8713 37.136 50.1041 38.4062 48.8977 40.0512L46.6767 38.8185L45.7474 40.3893L47.9684 41.6219C47.113 43.4617 46.875 45.5806 47.4401 47.6635C48.0052 49.7464 49.2815 51.4545 50.9494 52.6097L49.656 54.7959L51.2517 55.6815L52.5452 53.4954C54.4182 54.304 56.5853 54.5077 58.7255 53.9271C60.8658 53.3464 62.6339 52.0759 63.8403 50.431L66.0613 51.6636L66.9906 50.0929L64.7696 48.8602C65.6239 47.0198 65.8628 44.9006 65.2979 42.8186ZM58.2542 52.1899C54.3157 53.2584 50.2653 51.0104 49.2258 47.179C48.1864 43.3477 50.5452 39.3608 54.4837 38.2923C58.4223 37.2237 62.4726 39.4717 63.5121 43.3031C64.5516 47.1345 62.1928 51.1213 58.2542 52.1899ZM56.2512 44.8068L60.7156 43.5955L62.0117 48.3728L61.5653 48.494C60.9635 48.6572 60.3508 48.4094 60.0371 47.9247C59.4357 48.7043 58.5786 49.3043 57.5473 49.5841C55.0856 50.2519 52.5542 48.847 51.9045 46.4523C51.2548 44.0576 52.729 41.5659 55.1907 40.8981C56.9354 40.4247 58.7136 40.9933 59.8344 42.2167L58.4486 43.4263C57.7767 42.6919 56.7094 42.3511 55.6629 42.635C54.1861 43.0357 53.3014 44.5309 53.6912 45.9676C54.081 47.4042 55.6 48.2473 57.0768 47.8466C58.0662 47.5782 58.789 46.8188 59.0413 45.9149L56.7234 46.5437L56.252 44.8065L56.2512 44.8068Z" fill="#3333D6"/>
<path d="M68.9155 38.4854L71.2397 37.8548L73.6154 41.3535L73.8047 41.3022L74.0863 37.0825L76.4105 36.4519L78.0952 42.6615L76.5773 43.0734L75.5423 39.2585L75.3521 39.3101L75.0593 43.4852L73.6361 43.8713L71.2724 40.4169L71.0831 40.4683L72.1182 44.2832L70.6002 44.695L68.9155 38.4854Z" fill="#3333D6"/>
<path d="M87.3539 36.6255L90.3898 35.8019L90.4619 36.0676C90.9697 37.9395 89.9668 39.5358 88.1739 40.0222C86.381 40.5086 84.5892 39.5754 84.0814 37.7036C83.5735 35.8318 84.647 34.1212 86.4409 33.6345C87.6838 33.2973 88.5781 33.6646 89.1803 34.0822C89.5256 34.341 89.8235 34.6509 90.0786 35.0293L88.5133 35.454C88.3866 35.3261 88.2437 35.2128 88.0779 35.1245C87.7924 34.9734 87.3552 34.8636 86.8141 35.0104C85.865 35.2679 85.2986 36.1835 85.5995 37.2927C85.9004 38.4019 86.8519 38.9056 87.8011 38.6481C88.4743 38.4654 88.7864 38.1141 88.9443 37.7952C89.0364 37.6079 89.0829 37.4051 89.0896 37.2037L87.6191 37.6027L87.3542 36.6264L87.3539 36.6255Z" fill="#3333D6"/>
<path d="M91.0483 34.2891L92.4716 33.9029L93.1456 36.3871C93.2804 36.884 93.7438 37.1294 94.2751 36.9852C94.8064 36.8411 95.0822 36.3951 94.9474 35.8983L94.2735 33.4141L95.6967 33.0279L96.9243 37.5525L95.6912 37.887L95.4881 37.5131L95.4408 37.526C95.3815 37.6465 95.2898 37.7572 95.1859 37.8618C95.0041 38.0538 94.6911 38.2535 94.2455 38.3743C93.1071 38.6832 92.0963 38.148 91.7953 37.0388L91.0492 34.2888L91.0483 34.2891Z" fill="#3333D6"/>
<path d="M101.405 35.8605L101.358 35.8733C101.298 35.9939 101.219 36.1106 101.116 36.2242C100.935 36.4162 100.657 36.6341 100.173 36.7654C98.8929 37.1128 97.5844 36.4205 97.2112 35.0447C96.8379 33.6688 97.617 32.4102 98.8974 32.0628C99.3814 31.9315 99.73 31.9796 99.9848 32.0531C100.13 32.0996 100.258 32.1599 100.37 32.2339L100.418 32.2211L100.392 31.7515L101.625 31.417L102.852 35.9415L101.619 36.2761L101.404 35.8579L101.405 35.8605ZM100.817 34.0673C100.634 33.3933 100.042 33.0868 99.4249 33.2542C98.8079 33.4215 98.4516 33.9845 98.6347 34.6594C98.8178 35.3343 99.4097 35.64 100.027 35.4726C100.644 35.3052 101 34.7422 100.817 34.0673Z" fill="#3333D6"/>
<path d="M102.243 31.252L103.713 30.853L105.516 33.5541L105.705 33.5027L105.895 30.2609L107.366 29.8619L106.981 34.824L105.084 35.3387L102.244 31.2517L102.243 31.252Z" fill="#3333D6"/>
<path d="M112.456 32.8625L112.409 32.8753C112.35 32.9958 112.269 33.1128 112.168 33.2261C111.986 33.4181 111.709 33.636 111.225 33.7673C109.944 34.1147 108.636 33.4225 108.262 32.0466C107.889 30.6708 108.668 29.4121 109.949 29.0647C110.433 28.9334 110.781 28.9816 111.036 29.0551C111.181 29.1016 111.309 29.1618 111.422 29.2359L111.469 29.223L111.443 28.7535L112.676 28.4189L113.904 32.9435L112.671 33.278L112.456 32.8599L112.456 32.8625ZM111.868 31.0693C111.685 30.3953 111.093 30.0887 110.476 30.2561C109.859 30.4235 109.503 30.9864 109.686 31.6613C109.869 32.3362 110.461 32.6419 111.078 32.4745C111.695 32.3071 112.051 31.7442 111.868 31.0693Z" fill="#3333D6"/>
<path d="M81.9092 43.5725C81.5966 43.6572 81.2864 43.6939 80.9787 43.6832C80.6698 43.6718 80.3925 43.6249 80.1456 43.5418C79.8978 43.4588 79.6879 43.3563 79.5137 43.2339L80.1063 42.1919C80.2122 42.261 80.3405 42.3204 80.4922 42.3706C80.643 42.4211 80.8047 42.4519 80.9758 42.4642C81.1469 42.4765 81.3194 42.4586 81.4944 42.4111C81.7506 42.3416 81.9575 42.2314 82.1144 42.0816C82.2712 41.9318 82.3763 41.7541 82.4285 41.5506C82.4807 41.3472 82.4739 41.1243 82.4079 40.8811L82.2967 40.4711L82.2592 40.4813C82.2103 40.6969 82.0828 40.9124 81.876 41.1289C81.6692 41.3454 81.3946 41.4992 81.0508 41.5924C80.7071 41.6857 80.3606 41.6948 80.0489 41.6097C79.7373 41.5245 79.4683 41.3597 79.2407 41.1146C79.0132 40.8695 78.8458 40.5494 78.7386 40.1542L78.1004 37.802L79.5255 37.4154L80.1019 39.54C80.1497 39.7163 80.2249 39.8591 80.3292 39.9679C80.4326 40.0769 80.5561 40.1507 80.7009 40.1897C80.8457 40.2288 81.0021 40.2255 81.1708 40.1797C81.3583 40.1288 81.5155 40.0405 81.6424 39.9147C81.7694 39.7889 81.8537 39.6438 81.896 39.4785C81.9386 39.314 81.9329 39.1337 81.8801 38.9391L81.3334 36.924L82.7486 36.54L83.8246 40.506C83.9483 40.962 83.9526 41.3982 83.8374 41.8146C83.7222 42.231 83.5001 42.5925 83.1716 42.9008C82.8428 43.2082 82.4214 43.4325 81.9098 43.5713L81.9092 43.5725Z" fill="#3333D6"/>
</g>
<path d="M39.4724 89.1988L35.6638 75.1608L44.794 72.6837L45.3723 74.8155L38.7851 76.6026L39.8191 80.4137L45.9333 78.7549L46.5117 80.8866L40.3975 82.5454L41.437 86.3771L48.079 84.5751L48.6574 86.7068L39.4724 89.1988ZM49.5133 71.4033L53.9994 75.7055L54.1091 75.6757L55.8194 69.6924L58.7188 68.9058L56.2979 77.0982L62.596 82.9252L59.6485 83.7248L55.1374 79.4663L55.0278 79.496L53.2876 85.4506L50.3539 86.2465L52.8844 78.0244L46.6001 72.1937L49.5133 71.4033ZM64.5238 82.4022L60.7152 68.3642L69.8454 65.8871L70.4237 68.0188L63.8366 69.806L64.8705 73.6171L70.9847 71.9583L71.5631 74.09L65.4489 75.7488L66.4884 79.5805L73.1304 77.7785L73.7088 79.9102L64.5238 82.4022ZM85.7407 66.6597L83.1772 67.3552C82.99 66.9546 82.7541 66.6188 82.4696 66.3476C82.1839 66.0719 81.8637 65.8595 81.5093 65.7104C81.1549 65.5612 80.7748 65.4804 80.3691 65.4678C79.9667 65.4494 79.5507 65.4985 79.1212 65.615C78.3581 65.8221 77.7338 66.1975 77.2485 66.7413C76.7619 67.2805 76.4516 67.9632 76.3176 68.7894C76.1824 69.6111 76.258 70.5497 76.5444 71.6053C76.8357 72.6791 77.248 73.5387 77.7812 74.1839C78.3177 74.8233 78.9292 75.251 79.6158 75.467C80.3057 75.6772 81.03 75.6794 81.7885 75.4736C82.2089 75.3596 82.5871 75.1981 82.9229 74.9893C83.262 74.7746 83.5481 74.5179 83.781 74.2192C84.0185 73.9193 84.1944 73.5821 84.3087 73.2077C84.4276 72.832 84.47 72.428 84.4361 71.9957L87.0034 71.3139C87.0885 72.0071 87.0504 72.6895 86.8892 73.3612C86.7326 74.0317 86.4592 74.6603 86.0689 75.2469C85.6773 75.8291 85.1729 76.3388 84.5556 76.7761C83.9371 77.2088 83.2098 77.5386 82.3735 77.7655C81.1397 78.1002 79.9609 78.1134 78.8372 77.805C77.7135 77.4966 76.7266 76.8789 75.8765 75.9517C75.0264 75.0245 74.3968 73.8069 73.9877 72.2989C73.5773 70.7864 73.5075 69.4169 73.7782 68.1905C74.0477 66.9596 74.5893 65.9271 75.4031 65.0931C76.2169 64.259 77.2361 63.6759 78.4608 63.3436C79.2422 63.1316 79.9985 63.0442 80.7298 63.0813C81.461 63.1184 82.1471 63.2781 82.7879 63.5605C83.4274 63.8384 83.9994 64.2376 84.5037 64.7582C85.0113 65.2729 85.4236 65.9068 85.7407 66.6597ZM95.6336 58.8906L98.1767 58.2006L100.665 67.3719C100.938 68.3773 100.94 69.326 100.672 70.218C100.408 71.1089 99.9073 71.885 99.1693 72.5464C98.4301 73.2032 97.4892 73.6866 96.3468 73.9965C95.1998 74.3077 94.1414 74.3667 93.1716 74.1736C92.2005 73.9759 91.3762 73.5593 90.6984 72.9238C90.0207 72.2884 89.5455 71.468 89.2727 70.4627L86.7845 61.2914L89.3275 60.6015L91.7581 69.5603C91.9168 70.1452 92.1861 70.6314 92.566 71.019C92.9504 71.4053 93.4133 71.6648 93.9546 71.7976C94.4947 71.9258 95.087 71.9025 95.7313 71.7277C96.3756 71.5529 96.8984 71.2737 97.2996 70.8901C97.7042 70.5006 97.9725 70.0427 98.1044 69.5164C98.2363 68.99 98.2229 68.4343 98.0642 67.8494L95.6336 58.8906ZM100.902 59.7499L100.324 57.6181L111.524 54.5794L112.102 56.7112L107.764 57.8883L110.994 69.7946L108.471 70.4789L105.241 58.5727L100.902 59.7499ZM117.492 68.0316L113.683 53.9936L122.813 51.5166L123.392 53.6483L116.805 55.4354L117.839 59.2465L123.953 57.5877L124.531 59.7194L118.417 61.3783L119.456 65.2099L126.098 63.4079L126.677 65.5397L117.492 68.0316ZM133.973 63.56L129.216 64.8507L125.408 50.8127L130.261 49.496C131.655 49.1179 132.928 49.0741 134.081 49.3647C135.238 49.6494 136.228 50.2419 137.051 51.142C137.874 52.0422 138.483 53.2211 138.879 54.6788C139.275 56.1411 139.345 57.4715 139.086 58.6701C138.832 59.8674 138.272 60.8853 137.405 61.7239C136.543 62.5612 135.399 63.1732 133.973 63.56ZM131.162 61.9604L133.253 61.3932C134.231 61.1279 134.998 60.7284 135.555 60.1947C136.111 59.6564 136.456 58.9862 136.592 58.184C136.726 57.3773 136.648 56.4371 136.356 55.3632C136.065 54.2893 135.659 53.4429 135.138 52.8238C134.615 52.2002 133.984 51.7999 133.244 51.6229C132.508 51.44 131.664 51.4775 130.714 51.7354L128.548 52.323L131.162 61.9604Z" fill="#3333D6"/>
<rect x="1.84043" y="41.9026" width="153" height="69" transform="rotate(-15.1793 1.84043 41.9026)" stroke="#3333D6" stroke-width="3"/>
<defs>
<clipPath id="clip0_9514_59718">
<rect width="68" height="18" fill="white" transform="translate(45.0835 38.9775) rotate(-15.1793)"/>
</clipPath>
</defs>
</svg>
