<svg width="560" height="15" viewBox="0 0 560 15" fill="none" xmlns="http://www.w3.org/2000/svg">
<g clip-path="url(#clip0_9514_59730)">
<rect width="560" height="14.241" transform="translate(560 14.2412) rotate(-180)" fill="#F5F5F5"/>
<ellipse cx="404.097" cy="14.4143" rx="11.0008" ry="11.0769" transform="rotate(-180 404.097 14.4143)" fill="white"/>
<ellipse cx="494.851" cy="14.4143" rx="11.0008" ry="11.0769" transform="rotate(-180 494.851 14.4143)" fill="white"/>
<ellipse cx="313.343" cy="14.4143" rx="11.0008" ry="11.0769" transform="rotate(-180 313.343 14.4143)" fill="white"/>
<ellipse cx="555.359" cy="14.4143" rx="11.0008" ry="11.0769" transform="rotate(-180 555.359 14.4143)" fill="white"/>
<ellipse cx="373.845" cy="14.4143" rx="11.0008" ry="11.0769" transform="rotate(-180 373.845 14.4143)" fill="white"/>
<ellipse cx="464.603" cy="14.4143" rx="11.0008" ry="11.0769" transform="rotate(-180 464.603 14.4143)" fill="white"/>
<ellipse cx="283.089" cy="14.4143" rx="11.0008" ry="11.0769" transform="rotate(-180 283.089 14.4143)" fill="white"/>
<ellipse cx="525.111" cy="14.4143" rx="11.0008" ry="11.0769" transform="rotate(-180 525.111 14.4143)" fill="white"/>
<ellipse cx="343.591" cy="14.4143" rx="11.0008" ry="11.0769" transform="rotate(-180 343.591 14.4143)" fill="white"/>
<ellipse cx="434.349" cy="14.4143" rx="11.0008" ry="11.0769" transform="rotate(-180 434.349 14.4143)" fill="white"/>
<ellipse cx="252.837" cy="14.4143" rx="11.0008" ry="11.0769" transform="rotate(-180 252.837 14.4143)" fill="white"/>
<ellipse cx="219.663" cy="14.4143" rx="11.0008" ry="11.0769" transform="rotate(-180 219.663 14.4143)" fill="white"/>
<ellipse cx="38.1501" cy="14.4143" rx="11.0008" ry="11.0769" transform="rotate(-180 38.1501 14.4143)" fill="white"/>
<ellipse cx="128.906" cy="14.4143" rx="11.0008" ry="11.0769" transform="rotate(-180 128.906 14.4143)" fill="white"/>
<ellipse cx="189.412" cy="14.4143" rx="11.0008" ry="11.0769" transform="rotate(-180 189.412 14.4143)" fill="white"/>
<ellipse cx="7.89812" cy="14.4143" rx="11.0008" ry="11.0769" transform="rotate(-180 7.89812 14.4143)" fill="white"/>
<ellipse cx="98.6545" cy="14.4143" rx="11.0008" ry="11.0769" transform="rotate(-180 98.6545 14.4143)" fill="white"/>
<ellipse cx="159.158" cy="14.4143" rx="11.0008" ry="11.0769" transform="rotate(-180 159.158 14.4143)" fill="white"/>
<ellipse cx="68.402" cy="14.4143" rx="11.0008" ry="11.0769" transform="rotate(-180 68.402 14.4143)" fill="white"/>
</g>
<defs>
<clipPath id="clip0_9514_59730">
<rect width="560" height="14.241" fill="white" transform="translate(560 14.2412) rotate(-180)"/>
</clipPath>
</defs>
</svg>
