<svg width="55" height="54" viewBox="0 0 55 54" fill="none" xmlns="http://www.w3.org/2000/svg">
<path d="M54.4218 27C54.4218 20.5254 52.1143 14.5773 48.2694 9.9225L53.6245 4.6089L49.7769 0.7911L44.4218 6.1047C39.7306 2.2896 33.7361 0 27.2109 0C20.6857 0 14.6912 2.2896 10 6.1047L4.6449 0.7911L0.797279 4.6089L6.15238 9.9225C2.30748 14.5773 0 20.5254 0 27C0 33.4746 2.30748 39.4227 6.15238 44.0775L0.797279 49.3911L4.6449 53.2089L10 47.8953C14.6939 51.7077 20.6884 54 27.2109 54C33.7333 54 39.7306 51.7104 44.4218 47.8953L49.7769 53.2089L53.6245 49.3911L48.2694 44.0775C52.1116 39.42 54.4218 33.4719 54.4218 27ZM27.2109 48.6C15.2082 48.6 5.44218 38.9097 5.44218 27C5.44218 15.0903 15.2082 5.4 27.2109 5.4C39.2136 5.4 48.9796 15.0903 48.9796 27C48.9796 38.9097 39.2136 48.6 27.2109 48.6ZM27.2109 25.65H40.8163V40.5H39.4558C37.6218 40.5 36.0735 39.3012 35.5565 37.6515C33.249 39.4362 30.3537 40.5 27.2109 40.5C19.7088 40.5 13.6054 34.4439 13.6054 27C13.6054 19.5561 19.7088 13.5 27.2109 13.5C32.5279 13.5 37.1374 16.5429 39.3769 20.9655L34.5116 23.3793C33.1701 20.7252 30.4027 18.9 27.2136 18.9C22.7129 18.9 19.0503 22.5342 19.0503 27C19.0503 31.4658 22.7129 35.1 27.2136 35.1C30.2286 35.1 32.8653 33.4692 34.2776 31.05H27.2136V25.65H27.2109Z" fill="#AAF132"/>
</svg>
