<svg width="563" height="85" viewBox="0 0 563 85" fill="none" xmlns="http://www.w3.org/2000/svg">
<path d="M0 0V67.9142C3.60052 65.3652 16.6588 60.3682 16.6588 65.2138C16.6588 68.0909 37.7041 66.0466 37.7041 66.3495C37.7041 75.3593 55.7067 54.715 55.7067 53.8064C55.7067 54.3616 68.7649 59.1568 68.7649 64.3809C68.7649 69.5042 82.9895 61.6301 82.9895 59.611C82.9895 61.1001 84.7137 41.2634 84.7137 42.7271C84.7137 51.9641 100.637 26.5499 100.637 35.8121C100.637 40.052 116.687 44.4433 116.687 37.3768C116.687 34.1464 128.858 44.0143 128.858 46.0837C128.858 38.7648 140.319 55.0431 140.319 54.3869C140.319 56.103 155.304 48.1784 155.304 51.8631C155.304 47.4718 169.047 50.9293 169.047 57.4406C169.047 55.4216 183.322 53.9578 183.322 51.4088C183.322 55.5478 197.953 60.671 197.953 60.671C197.953 62.5386 212.355 57.0621 212.355 58.2735C212.355 60.141 228.075 56.0273 228.075 55.4468C228.075 58.223 243.061 58.753 243.061 58.0716C243.061 50.2984 257.234 70.2613 257.234 62.7153C257.234 62.5891 267.757 77.8325 267.757 78.6149C267.757 85.2019 283.681 83.7634 283.681 76.7473C283.681 78.0092 298.514 75.0059 298.514 75.9902C298.514 77.5297 312.662 68.1413 312.662 75.3593C312.662 75.0312 333.277 81.8201 333.277 80.8358C333.277 85.2524 351.913 77.5802 351.913 78.2616C351.913 76.0912 369.966 65.5923 369.966 65.9709C369.966 67.8637 388.4 67.7628 388.4 68.318C388.4 69.8323 404.729 71.3465 404.729 70.8922C404.729 72.6589 419.943 65.5166 419.943 67.5104C419.943 66.3999 434.294 62.4629 434.294 62.4376C434.294 60.9739 449.584 68.3685 449.584 58.3239C449.584 59.5606 465.177 64.7847 465.177 61.0748C465.177 63.4976 481.304 65.4157 481.304 60.3934C481.304 61.4534 497.05 66.198 497.05 63.4472C497.05 63.1695 508.992 79.2206 508.992 76.6211C508.992 79.0692 527.755 75.965 527.755 71.826C527.755 71.6746 541.143 83.0062 541.143 80.3058C541.143 82.8296 560.541 83.7886 560.541 85C560.541 79.6496 562.391 62.1348 562.391 69.8575C562.391 70.8922 562.645 70.337 563 68.9237V0H0Z" fill="#F5F5F5"/>
</svg>
