<svg width="166" height="110" viewBox="0 0 166 110" fill="none" xmlns="http://www.w3.org/2000/svg">
<g clip-path="url(#clip0_9514_59832)">
<path d="M63.3677 42.5354C62.8026 40.4525 61.5263 38.7444 59.8584 37.5892L61.1518 35.4031L59.556 34.5174L58.2626 36.7036C56.3903 35.8939 54.2234 35.691 52.0822 36.2719C49.9411 36.8528 48.1739 38.123 46.9675 39.768L44.7465 38.5353L43.8172 40.1061L46.0382 41.3387C45.1828 43.1785 44.9448 45.2974 45.5099 47.3803C46.075 49.4632 47.3513 51.1713 49.0192 52.3265L47.7258 54.5127L49.3216 55.3983L50.615 53.2122C52.488 54.0208 54.6551 54.2245 56.7954 53.6439C58.9356 53.0632 60.7037 51.7927 61.9101 50.1477L64.1311 51.3804L65.0604 49.8097L62.8394 48.577C63.6937 46.7366 63.9326 44.6174 63.3677 42.5354ZM56.3241 51.9067C52.3855 52.9752 48.3352 50.7272 47.2957 46.8958C46.2562 43.0644 48.615 39.0776 52.5536 38.0091C56.4921 36.9405 60.5425 39.1885 61.5819 43.0199C62.6214 46.8513 60.2626 50.8381 56.3241 51.9067ZM54.321 44.5236L58.7854 43.3123L60.0815 48.0896L59.6351 48.2108C59.0333 48.374 58.4206 48.1262 58.107 47.6415C57.5056 48.4211 56.6484 49.0211 55.6171 49.3009C53.1554 49.9687 50.6241 48.5638 49.9743 46.1691C49.3246 43.7744 50.7988 41.2827 53.2605 40.6149C55.0052 40.1415 56.7834 40.7101 57.9042 41.9335L56.5184 43.1431C55.8466 42.4087 54.7792 42.0679 53.7327 42.3518C52.2559 42.7525 51.3712 44.2477 51.761 45.6844C52.1508 47.121 53.6698 47.9641 55.1467 47.5634C56.136 47.295 56.8589 46.5356 57.1111 45.6316L54.7932 46.2605L54.3219 44.5233L54.321 44.5236Z" fill="#DE2D22"/>
<path d="M66.9854 38.2021L69.3095 37.5716L71.6852 41.0703L71.8745 41.0189L72.1561 36.7993L74.4803 36.1687L76.165 42.3783L74.6471 42.7902L73.6121 38.9753L73.4219 39.0269L73.1292 43.202L71.7059 43.5881L69.3423 40.1337L69.153 40.1851L70.188 43.9999L68.6701 44.4118L66.9854 38.2021Z" fill="#DE2D22"/>
<path d="M85.4243 36.3423L88.4601 35.5187L88.5322 35.7844C89.04 37.6563 88.0371 39.2526 86.2442 39.739C84.4513 40.2254 82.6595 39.2922 82.1517 37.4204C81.6438 35.5486 82.7174 33.838 84.5112 33.3513C85.7541 33.0141 86.6484 33.3814 87.2506 33.7989C87.5959 34.0578 87.8938 34.3677 88.1489 34.7461L86.5836 35.1707C86.4569 35.0429 86.314 34.9296 86.1482 34.8413C85.8628 34.6902 85.4255 34.5804 84.8845 34.7272C83.9353 34.9847 83.3689 35.9003 83.6698 37.0095C83.9708 38.1187 84.9222 38.6224 85.8714 38.3649C86.5446 38.1822 86.8567 37.8309 87.0146 37.512C87.1067 37.3247 87.1532 37.1219 87.16 36.9205L85.6894 37.3195L85.4245 36.3432L85.4243 36.3423Z" fill="#DE2D22"/>
<path d="M89.1182 34.0059L90.5414 33.6197L91.2154 36.1039C91.3502 36.6008 91.8137 36.8462 92.3449 36.702C92.8762 36.5579 93.1521 36.1119 93.0173 35.6151L92.3433 33.1309L93.7666 32.7447L94.9941 37.2693L93.761 37.6038L93.558 37.2299L93.5106 37.2428C93.4513 37.3633 93.3596 37.474 93.2557 37.5786C93.0739 37.7706 92.7609 37.9703 92.3153 38.0911C91.1769 38.4 90.1661 37.8648 89.8651 36.7556L89.1191 34.0056L89.1182 34.0059Z" fill="#DE2D22"/>
<path d="M99.4743 35.5773L99.427 35.5901C99.3677 35.7107 99.2882 35.8274 99.1857 35.941C99.0039 36.133 98.7266 36.3509 98.2426 36.4822C96.9622 36.8296 95.6538 36.1373 95.2805 34.7615C94.9072 33.3856 95.6864 32.127 96.9668 31.7796C97.4507 31.6483 97.7993 31.6964 98.0541 31.7699C98.199 31.8164 98.3275 31.8767 98.4396 31.9507L98.4869 31.9379L98.4612 31.4683L99.6943 31.1338L100.922 35.6583L99.6887 35.9929L99.4736 35.5747L99.4743 35.5773ZM98.8862 33.7841C98.7034 33.1101 98.1112 32.8036 97.4942 32.971C96.8772 33.1383 96.5209 33.7013 96.704 34.3762C96.8871 35.0511 97.4791 35.3568 98.0961 35.1894C98.713 35.022 99.0693 34.459 98.8862 33.7841Z" fill="#DE2D22"/>
<path d="M100.312 30.9688L101.783 30.5698L103.586 33.2709L103.775 33.2195L103.965 29.9777L105.436 29.5787L105.051 34.5408L103.153 35.0555L100.313 30.9685L100.312 30.9688Z" fill="#DE2D22"/>
<path d="M110.526 32.5793L110.479 32.5921C110.419 32.7126 110.339 32.8296 110.237 32.9429C110.056 33.1349 109.778 33.3528 109.294 33.4841C108.014 33.8315 106.706 33.1393 106.332 31.7634C105.959 30.3875 106.738 29.1289 108.019 28.7815C108.502 28.6502 108.851 28.6984 109.106 28.7719C109.251 28.8184 109.379 28.8786 109.491 28.9527L109.539 28.9398L109.513 28.4703L110.746 28.1357L111.974 32.6603L110.74 32.9948L110.525 32.5766L110.526 32.5793ZM109.938 30.7861C109.755 30.1121 109.163 29.8055 108.546 29.9729C107.929 30.1403 107.573 30.7032 107.756 31.3781C107.939 32.053 108.531 32.3587 109.148 32.1913C109.765 32.0239 110.121 31.461 109.938 30.7861Z" fill="#DE2D22"/>
<path d="M79.9795 43.2893C79.667 43.374 79.3567 43.4107 79.049 43.4C78.7401 43.3886 78.4628 43.3417 78.2159 43.2586C77.9681 43.1756 77.7582 43.0731 77.584 42.9507L78.1766 41.9087C78.2826 41.9778 78.4108 42.0372 78.5625 42.0874C78.7133 42.1379 78.875 42.1687 79.0461 42.181C79.2172 42.1933 79.3897 42.1754 79.5647 42.1279C79.821 42.0584 80.0278 41.9482 80.1847 41.7984C80.3415 41.6486 80.4467 41.4709 80.4988 41.2674C80.551 41.064 80.5442 40.8411 80.4782 40.5979L80.367 40.1879L80.3295 40.1981C80.2806 40.4137 80.1531 40.6292 79.9463 40.8457C79.7395 41.0622 79.4649 41.216 79.1211 41.3092C78.7774 41.4025 78.4309 41.4116 78.1193 41.3265C77.8076 41.2413 77.5386 41.0765 77.311 40.8314C77.0835 40.5863 76.9161 40.2662 76.8089 39.871L76.1707 37.5188L77.5958 37.1322L78.1722 39.2568C78.2201 39.4331 78.2952 39.5759 78.3995 39.6847C78.5029 39.7937 78.6264 39.8675 78.7712 39.9065C78.916 39.9455 79.0724 39.9423 79.2411 39.8965C79.4286 39.8456 79.5858 39.7573 79.7128 39.6315C79.8397 39.5057 79.924 39.3606 79.9664 39.1953C80.009 39.0308 80.0032 38.8505 79.9504 38.6559L79.4037 36.6408L80.8189 36.2568L81.8949 40.2228C82.0186 40.6788 82.0229 41.115 81.9077 41.5314C81.7925 41.9478 81.5704 42.3093 81.2419 42.6176C80.9131 42.925 80.4917 43.1493 79.9801 43.2881L79.9795 43.2893Z" fill="#DE2D22"/>
</g>
<path d="M39.4719 88.3921L35.6633 74.3541L40.9275 72.9259C42.006 72.6333 42.9616 72.5752 43.7944 72.7516C44.6318 72.9267 45.3296 73.3015 45.8878 73.8762C46.4493 74.445 46.8516 75.1773 47.0946 76.0729C47.3388 76.9732 47.3589 77.8066 47.1548 78.5734C46.954 79.3343 46.5325 79.9957 45.8901 80.5575C45.2466 81.1148 44.3855 81.5398 43.3071 81.8323L39.5577 82.8496L38.9849 80.7384L42.3916 79.8141C43.0222 79.6431 43.515 79.4161 43.8701 79.1334C44.2238 78.8461 44.4508 78.5073 44.551 78.1171C44.6545 77.721 44.6387 77.274 44.5036 76.7759C44.3684 76.2778 44.1549 75.8795 43.8629 75.5809C43.5697 75.2778 43.1973 75.0894 42.7455 75.0157C42.2926 74.9374 41.7485 74.9845 41.1133 75.1568L38.7828 75.7891L42.0149 87.7022L39.4719 88.3921ZM44.9982 80.0636L50.1991 85.4817L47.3614 86.2517L42.2221 80.8168L44.9982 80.0636ZM52.0259 84.9861L48.2173 70.9482L57.3474 68.4711L57.9258 70.6028L51.3386 72.39L52.3726 76.2011L58.4868 74.5422L59.0652 76.674L52.951 78.3328L53.9905 82.1645L60.6325 80.3625L61.2109 82.4942L52.0259 84.9861ZM65.4803 66.2646L68.0027 65.5802L70.6807 75.4507C70.9216 76.3567 70.941 77.1879 70.739 77.9443C70.5358 78.6961 70.1415 79.3403 69.5561 79.8769C68.974 80.4076 68.2328 80.7952 67.3326 81.0394C66.5101 81.2626 65.7301 81.3172 64.9927 81.2032C64.2587 81.0835 63.621 80.7855 63.0797 80.3093C62.5384 79.8331 62.1506 79.1632 61.9163 78.2995L64.4456 77.6133C64.553 77.9913 64.7239 78.2958 64.9583 78.5265C65.1972 78.7561 65.4804 78.9049 65.8079 78.973C66.1355 79.0412 66.4866 79.0244 66.8614 78.9227C67.2681 78.8124 67.5901 78.6343 67.8276 78.3883C68.0638 78.1378 68.2091 77.8236 68.2636 77.4458C68.3227 77.0667 68.2875 76.6298 68.1582 76.1351L65.4803 66.2646ZM74.5703 78.8697L70.7617 64.8317L79.8918 62.3547L80.4702 64.4864L73.883 66.2735L74.917 70.0846L81.0312 68.4258L81.6096 70.5576L75.4954 72.2164L76.5349 76.048L83.1769 74.246L83.7553 76.3778L74.5703 78.8697ZM95.7872 63.1272L93.2236 63.8228C93.0364 63.4222 92.8006 63.0863 92.5161 62.8152C92.2303 62.5395 91.9102 62.3271 91.5558 62.1779C91.2013 62.0288 90.8212 61.9479 90.4155 61.9354C90.0132 61.917 89.5972 61.966 89.1677 62.0826C88.4045 62.2896 87.7803 62.665 87.2949 63.2088C86.8084 63.748 86.4981 64.4307 86.3641 65.257C86.2289 66.0786 86.3045 67.0172 86.5908 68.0728C86.8822 69.1467 87.2945 70.0062 87.8277 70.6514C88.3642 71.2908 88.9757 71.7185 89.6623 71.9346C90.3522 72.1448 91.0764 72.147 91.835 71.9412C92.2554 71.8271 92.6335 71.6657 92.9693 71.4568C93.3085 71.2421 93.5945 70.9855 93.8275 70.6868C94.065 70.3869 94.2409 70.0497 94.3552 69.6753C94.474 69.2996 94.5165 68.8956 94.4826 68.4632L97.0499 67.7814C97.135 68.4746 97.0969 69.1571 96.9357 69.8288C96.7791 70.4992 96.5056 71.1278 96.1153 71.7145C95.7238 72.2966 95.2194 72.8063 94.6021 73.2436C93.9836 73.6763 93.2562 74.0061 92.42 74.233C91.1862 74.5678 90.0074 74.5809 88.8837 74.2726C87.7599 73.9642 86.773 73.3464 85.9229 72.4192C85.0729 71.492 84.4433 70.2745 84.0341 68.7665C83.6238 67.2539 83.5539 65.8845 83.8247 64.6581C84.0941 63.4272 84.6358 62.3947 85.4496 61.5606C86.2634 60.7266 87.2826 60.1435 88.5073 59.8112C89.2887 59.5992 90.045 59.5117 90.7763 59.5488C91.5075 59.5859 92.1935 59.7457 92.8343 60.0281C93.4739 60.3059 94.0458 60.7051 94.5501 61.2257C95.0577 61.7405 95.4701 62.3743 95.7872 63.1272ZM96.7924 60.0581L96.2141 57.9263L107.414 54.8876L107.993 57.0194L103.654 58.1966L106.884 70.1028L104.362 70.7872L101.131 58.8809L96.7924 60.0581ZM113.382 68.3398L109.573 54.3019L118.704 51.8248L119.282 53.9565L112.695 55.7437L113.729 59.5548L119.843 57.8959L120.421 60.0277L114.307 61.6865L115.347 65.5182L121.989 63.7161L122.567 65.8479L113.382 68.3398ZM129.864 63.8683L125.107 65.1589L121.298 51.1209L126.151 49.8043C127.545 49.4261 128.818 49.3823 129.972 49.6729C131.128 49.9576 132.118 50.5501 132.941 51.4503C133.764 52.3504 134.374 53.5293 134.769 54.9871C135.166 56.4494 135.235 57.7798 134.976 58.9783C134.722 60.1756 134.162 61.1936 133.295 62.0321C132.433 62.8694 131.289 63.4815 129.864 63.8683ZM127.053 62.2687L129.143 61.7015C130.121 61.4361 130.889 61.0366 131.445 60.5029C132.001 59.9646 132.346 59.2944 132.482 58.4923C132.616 57.6856 132.538 56.7453 132.247 55.6714C131.955 54.5976 131.549 53.7511 131.028 53.1321C130.505 52.5085 129.874 52.1081 129.134 51.9311C128.398 51.7482 127.555 51.7857 126.604 52.0436L124.438 52.6313L127.053 62.2687Z" fill="#DE2D22"/>
<rect x="1.84043" y="41.0959" width="149" height="69" transform="rotate(-15.1793 1.84043 41.0959)" stroke="#DE2D22" stroke-width="3"/>
<defs>
<clipPath id="clip0_9514_59832">
<rect width="68" height="18" fill="white" transform="translate(43.1533 38.6943) rotate(-15.1793)"/>
</clipPath>
</defs>
</svg>
