<svg width="132" height="26" viewBox="0 0 132 26" fill="none" xmlns="http://www.w3.org/2000/svg">
<path d="M0.0273438 0.293945H7.11034L11.1593 12.29H11.7362L15.7852 0.293945H22.8682V19.5962H18.2423V7.73784H17.6627L13.6165 19.5962H9.27905L5.23006 7.73784H4.65319V19.5962H0.0273438V0.293945Z" fill="#003F47"/>
<path d="M53.7989 9.39272H63.0506V10.2189C63.0506 16.0374 58.9744 19.8714 53.5105 19.8714C48.0465 19.8714 43.6792 15.762 43.6792 9.94353C43.6792 4.12503 48.0438 0.015625 53.5105 0.015625C57.2982 0.015625 59.554 1.78143 60.9418 3.46353C61.7227 4.48413 62.3295 5.61542 62.7622 6.91142H57.9921C57.7309 6.44162 57.4125 6.00153 57.0098 5.61543C56.3159 4.95393 55.1595 4.29243 53.5105 4.29243C50.618 4.29243 48.305 6.49833 48.305 9.94623C48.305 13.3941 50.618 15.6 53.5105 15.6C55.5622 15.6 56.7187 14.8278 57.4125 14.0286C57.818 13.5588 58.1064 13.008 58.2806 12.4302H53.7989V9.39543V9.39272Z" fill="#003F47"/>
<path d="M66.0845 5.53125H70.4219V13.2533C70.4219 14.7977 71.5484 15.8723 73.1675 15.8723C74.7865 15.8723 75.913 14.7977 75.913 13.2533V5.53125H80.2505V19.5955H76.4926L76.2042 18.3536H76.06C75.7987 18.656 75.4532 18.9044 75.0777 19.1258C74.4137 19.5389 73.3715 19.8709 72.0137 19.8709C68.5443 19.8709 66.0872 17.5274 66.0872 14.0795V5.53125H66.0845Z" fill="#003F47"/>
<path d="M94.2723 18.2164H94.1281C93.8669 18.5188 93.5512 18.7942 93.173 19.0426C92.509 19.4557 91.5539 19.8688 90.0791 19.8688C86.1771 19.8688 82.9961 16.8367 82.9961 12.5599C82.9961 8.28308 86.1771 5.25098 90.0791 5.25098C91.5539 5.25098 92.5063 5.66408 93.173 6.07718C93.5485 6.32558 93.8669 6.60098 94.1281 6.90338H94.2723L94.5607 5.52368H98.3185V19.588H94.5607L94.2723 18.2083V18.2164ZM93.9839 12.5626C93.9839 10.4674 92.539 9.11468 90.6587 9.11468C88.7784 9.11468 87.3335 10.4647 87.3335 12.5626C87.3335 14.6605 88.7784 16.0105 90.6587 16.0105C92.539 16.0105 93.9839 14.6605 93.9839 12.5626Z" fill="#003F47"/>
<path d="M100.199 5.53125H104.68L107.717 14.768H108.294L111.331 5.53125H115.812L110.898 19.5955H105.116L100.201 5.53125H100.199Z" fill="#003F47"/>
<path d="M127.951 18.2164H127.807C127.546 18.5188 127.227 18.7942 126.852 19.0426C126.188 19.4557 125.233 19.8688 123.758 19.8688C119.856 19.8688 116.675 16.8367 116.675 12.5599C116.675 8.28308 119.856 5.25098 123.758 5.25098C125.233 5.25098 126.185 5.66408 126.852 6.07718C127.227 6.32558 127.546 6.60098 127.807 6.90338H127.951L128.239 5.52368H131.997V19.588H128.239L127.951 18.2083V18.2164ZM127.663 12.5626C127.663 10.4674 126.218 9.11468 124.337 9.11468C122.457 9.11468 121.012 10.4647 121.012 12.5626C121.012 14.6605 122.457 16.0105 124.337 16.0105C126.218 16.0105 127.663 14.6605 127.663 12.5626Z" fill="#003F47"/>
<path d="M32.9934 25.2312C32.041 25.2312 31.1321 25.0935 30.2668 24.8208C29.3988 24.5454 28.6478 24.1917 28.0111 23.757C27.3716 23.3223 26.8546 22.8606 26.4546 22.3692L28.9389 19.8177C29.1866 20.1012 29.5049 20.3739 29.8968 20.6385C30.2859 20.9031 30.7213 21.1191 31.1974 21.2892C31.6736 21.4593 32.177 21.543 32.7104 21.543C33.4913 21.543 34.1634 21.3864 34.724 21.0759C35.2845 20.7654 35.7199 20.3334 36.0247 19.7853C36.3294 19.2372 36.4818 18.5865 36.4818 17.8305V16.5561H36.3675C36.0628 17.142 35.5349 17.6658 34.7811 18.1302C34.0274 18.5946 33.1294 18.8241 32.0818 18.8241C31.0342 18.8241 30.0437 18.5784 29.2247 18.087C28.4056 17.5956 27.7689 16.9071 27.3117 16.0188C26.8546 15.1305 26.626 14.0721 26.626 12.8436V5.532H30.9689V12.1362C30.9689 12.6843 31.0723 13.1568 31.2845 13.5537C31.494 13.9506 31.7879 14.2611 32.1689 14.4879C32.5498 14.7147 32.9961 14.8281 33.5104 14.8281C34.0818 14.8281 34.5961 14.6958 35.0532 14.4312C35.5104 14.1666 35.8614 13.8129 36.109 13.3674C36.3566 12.9246 36.4791 12.3981 36.4791 11.7933V5.5293H40.792V17.8575C40.792 19.275 40.4682 20.5413 39.8206 21.6564C39.173 22.7715 38.2641 23.6436 37.094 24.2781C35.924 24.9099 34.5553 25.2285 32.9961 25.2285L32.9934 25.2312Z" fill="#003F47"/>
</svg>
